<mxfile host="app.diagrams.net" modified="2022-12-01T08:23:15.990Z" agent="5.0 (Windows NT 10.0; Win64; x64) AppleWebKit/537.36 (KHTML, like Gecko) Chrome/107.0.0.0 Safari/537.36" version="20.6.0" etag="21uCpw3u6lyYSNSsjSdQ" type="github">
  <diagram id="kP-5cvlrTHaxsTImiW3Y" name="连接查询">
    <mxGraphModel dx="783" dy="469" grid="1" gridSize="10" guides="1" tooltips="1" connect="1" arrows="1" fold="1" page="1" pageScale="1" pageWidth="1169" pageHeight="827" math="0" shadow="0">
      <root>
        <mxCell id="0" />
        <mxCell id="1" parent="0" />
        <mxCell id="dnsrUVqm7o-Qzcl6kPEJ-1" value="t1" style="rounded=0;whiteSpace=wrap;html=1;fillColor=#008a00;fontColor=#ffffff;strokeColor=#005700;" vertex="1" parent="1">
          <mxGeometry x="100" y="180" width="40" height="40" as="geometry" />
        </mxCell>
        <mxCell id="dnsrUVqm7o-Qzcl6kPEJ-2" value="" style="shape=flexArrow;endArrow=classic;html=1;rounded=0;width=7;endSize=5.22;" edge="1" parent="1">
          <mxGeometry width="50" height="50" relative="1" as="geometry">
            <mxPoint x="144" y="199.5" as="sourcePoint" />
            <mxPoint x="194" y="200" as="targetPoint" />
          </mxGeometry>
        </mxCell>
        <mxCell id="dnsrUVqm7o-Qzcl6kPEJ-3" value="" style="shape=table;html=1;whiteSpace=wrap;startSize=0;container=1;collapsible=0;childLayout=tableLayout;fillColor=none;" vertex="1" parent="1">
          <mxGeometry x="200" y="160" width="90" height="90" as="geometry" />
        </mxCell>
        <mxCell id="dnsrUVqm7o-Qzcl6kPEJ-4" value="" style="shape=tableRow;horizontal=0;startSize=0;swimlaneHead=0;swimlaneBody=0;top=0;left=0;bottom=0;right=0;collapsible=0;dropTarget=0;fillColor=none;points=[[0,0.5],[1,0.5]];portConstraint=eastwest;" vertex="1" parent="dnsrUVqm7o-Qzcl6kPEJ-3">
          <mxGeometry width="90" height="31" as="geometry" />
        </mxCell>
        <mxCell id="dnsrUVqm7o-Qzcl6kPEJ-5" value="m1" style="shape=partialRectangle;html=1;whiteSpace=wrap;connectable=0;fillColor=#1ba1e2;top=0;left=0;bottom=0;right=0;overflow=hidden;fontColor=#ffffff;strokeColor=#006EAF;" vertex="1" parent="dnsrUVqm7o-Qzcl6kPEJ-4">
          <mxGeometry width="45" height="31" as="geometry">
            <mxRectangle width="45" height="31" as="alternateBounds" />
          </mxGeometry>
        </mxCell>
        <mxCell id="dnsrUVqm7o-Qzcl6kPEJ-6" value="n1" style="shape=partialRectangle;html=1;whiteSpace=wrap;connectable=0;top=0;left=0;bottom=0;right=0;overflow=hidden;fillColor=#1ba1e2;fontColor=#ffffff;strokeColor=#006EAF;" vertex="1" parent="dnsrUVqm7o-Qzcl6kPEJ-4">
          <mxGeometry x="45" width="45" height="31" as="geometry">
            <mxRectangle width="45" height="31" as="alternateBounds" />
          </mxGeometry>
        </mxCell>
        <mxCell id="dnsrUVqm7o-Qzcl6kPEJ-8" value="" style="shape=tableRow;horizontal=0;startSize=0;swimlaneHead=0;swimlaneBody=0;top=0;left=0;bottom=0;right=0;collapsible=0;dropTarget=0;fillColor=none;points=[[0,0.5],[1,0.5]];portConstraint=eastwest;" vertex="1" parent="dnsrUVqm7o-Qzcl6kPEJ-3">
          <mxGeometry y="31" width="90" height="28" as="geometry" />
        </mxCell>
        <mxCell id="dnsrUVqm7o-Qzcl6kPEJ-9" value="2" style="shape=partialRectangle;html=1;whiteSpace=wrap;connectable=0;fillColor=none;top=0;left=0;bottom=0;right=0;overflow=hidden;" vertex="1" parent="dnsrUVqm7o-Qzcl6kPEJ-8">
          <mxGeometry width="45" height="28" as="geometry">
            <mxRectangle width="45" height="28" as="alternateBounds" />
          </mxGeometry>
        </mxCell>
        <mxCell id="dnsrUVqm7o-Qzcl6kPEJ-10" value="b" style="shape=partialRectangle;html=1;whiteSpace=wrap;connectable=0;fillColor=none;top=0;left=0;bottom=0;right=0;overflow=hidden;" vertex="1" parent="dnsrUVqm7o-Qzcl6kPEJ-8">
          <mxGeometry x="45" width="45" height="28" as="geometry">
            <mxRectangle width="45" height="28" as="alternateBounds" />
          </mxGeometry>
        </mxCell>
        <mxCell id="dnsrUVqm7o-Qzcl6kPEJ-12" value="" style="shape=tableRow;horizontal=0;startSize=0;swimlaneHead=0;swimlaneBody=0;top=0;left=0;bottom=0;right=0;collapsible=0;dropTarget=0;fillColor=none;points=[[0,0.5],[1,0.5]];portConstraint=eastwest;" vertex="1" parent="dnsrUVqm7o-Qzcl6kPEJ-3">
          <mxGeometry y="59" width="90" height="31" as="geometry" />
        </mxCell>
        <mxCell id="dnsrUVqm7o-Qzcl6kPEJ-13" value="3" style="shape=partialRectangle;html=1;whiteSpace=wrap;connectable=0;fillColor=none;top=0;left=0;bottom=0;right=0;overflow=hidden;" vertex="1" parent="dnsrUVqm7o-Qzcl6kPEJ-12">
          <mxGeometry width="45" height="31" as="geometry">
            <mxRectangle width="45" height="31" as="alternateBounds" />
          </mxGeometry>
        </mxCell>
        <mxCell id="dnsrUVqm7o-Qzcl6kPEJ-14" value="c" style="shape=partialRectangle;html=1;whiteSpace=wrap;connectable=0;fillColor=none;top=0;left=0;bottom=0;right=0;overflow=hidden;" vertex="1" parent="dnsrUVqm7o-Qzcl6kPEJ-12">
          <mxGeometry x="45" width="45" height="31" as="geometry">
            <mxRectangle width="45" height="31" as="alternateBounds" />
          </mxGeometry>
        </mxCell>
        <mxCell id="dnsrUVqm7o-Qzcl6kPEJ-30" value="" style="endArrow=classic;html=1;rounded=0;" edge="1" parent="1">
          <mxGeometry width="50" height="50" relative="1" as="geometry">
            <mxPoint x="50" y="200" as="sourcePoint" />
            <mxPoint x="100" y="200" as="targetPoint" />
          </mxGeometry>
        </mxCell>
        <mxCell id="dnsrUVqm7o-Qzcl6kPEJ-31" value="t1.m1&amp;gt;1" style="text;html=1;strokeColor=none;fillColor=none;align=center;verticalAlign=middle;whiteSpace=wrap;rounded=0;" vertex="1" parent="1">
          <mxGeometry x="44" y="173" width="60" height="30" as="geometry" />
        </mxCell>
        <mxCell id="dnsrUVqm7o-Qzcl6kPEJ-32" value="t2" style="rounded=0;whiteSpace=wrap;html=1;fillColor=#008a00;fontColor=#ffffff;strokeColor=#005700;" vertex="1" parent="1">
          <mxGeometry x="360" y="160" width="40" height="40" as="geometry" />
        </mxCell>
        <mxCell id="dnsrUVqm7o-Qzcl6kPEJ-33" value="t2" style="rounded=0;whiteSpace=wrap;html=1;fillColor=#008a00;fontColor=#ffffff;strokeColor=#005700;" vertex="1" parent="1">
          <mxGeometry x="360" y="230" width="40" height="40" as="geometry" />
        </mxCell>
        <mxCell id="dnsrUVqm7o-Qzcl6kPEJ-36" value="" style="shape=flexArrow;endArrow=classic;html=1;rounded=0;width=6;endSize=5.01;" edge="1" parent="1">
          <mxGeometry width="50" height="50" relative="1" as="geometry">
            <mxPoint x="404" y="179.5" as="sourcePoint" />
            <mxPoint x="454" y="180" as="targetPoint" />
          </mxGeometry>
        </mxCell>
        <mxCell id="dnsrUVqm7o-Qzcl6kPEJ-37" value="" style="shape=flexArrow;endArrow=classic;html=1;rounded=0;width=4;endSize=5.23;" edge="1" parent="1">
          <mxGeometry width="50" height="50" relative="1" as="geometry">
            <mxPoint x="404" y="252.5" as="sourcePoint" />
            <mxPoint x="454" y="253" as="targetPoint" />
          </mxGeometry>
        </mxCell>
        <mxCell id="dnsrUVqm7o-Qzcl6kPEJ-38" value="" style="edgeStyle=elbowEdgeStyle;elbow=horizontal;endArrow=classic;html=1;rounded=0;exitX=1;exitY=0.5;exitDx=0;exitDy=0;entryX=0;entryY=0.5;entryDx=0;entryDy=0;" edge="1" parent="1" source="dnsrUVqm7o-Qzcl6kPEJ-8" target="dnsrUVqm7o-Qzcl6kPEJ-32">
          <mxGeometry width="50" height="50" relative="1" as="geometry">
            <mxPoint x="210" y="240" as="sourcePoint" />
            <mxPoint x="330" y="180" as="targetPoint" />
          </mxGeometry>
        </mxCell>
        <mxCell id="dnsrUVqm7o-Qzcl6kPEJ-39" value="" style="edgeStyle=elbowEdgeStyle;elbow=horizontal;endArrow=classic;html=1;rounded=0;entryX=0;entryY=0.5;entryDx=0;entryDy=0;exitX=1;exitY=0.5;exitDx=0;exitDy=0;" edge="1" parent="1" source="dnsrUVqm7o-Qzcl6kPEJ-12" target="dnsrUVqm7o-Qzcl6kPEJ-33">
          <mxGeometry width="50" height="50" relative="1" as="geometry">
            <mxPoint x="380" y="250" as="sourcePoint" />
            <mxPoint x="430" y="200" as="targetPoint" />
          </mxGeometry>
        </mxCell>
        <mxCell id="dnsrUVqm7o-Qzcl6kPEJ-40" value="t2.m2=2" style="text;html=1;strokeColor=none;fillColor=none;align=center;verticalAlign=middle;whiteSpace=wrap;rounded=0;" vertex="1" parent="1">
          <mxGeometry x="300" y="150" width="60" height="30" as="geometry" />
        </mxCell>
        <mxCell id="dnsrUVqm7o-Qzcl6kPEJ-41" value="t2.m2=3" style="text;html=1;strokeColor=none;fillColor=none;align=center;verticalAlign=middle;whiteSpace=wrap;rounded=0;" vertex="1" parent="1">
          <mxGeometry x="300" y="250" width="60" height="30" as="geometry" />
        </mxCell>
        <mxCell id="dnsrUVqm7o-Qzcl6kPEJ-42" value="t2.n2&amp;lt;&#39;d&#39;" style="text;html=1;strokeColor=none;fillColor=none;align=center;verticalAlign=middle;whiteSpace=wrap;rounded=0;" vertex="1" parent="1">
          <mxGeometry x="380" y="130" width="60" height="30" as="geometry" />
        </mxCell>
        <mxCell id="dnsrUVqm7o-Qzcl6kPEJ-43" value="t2.n2&amp;lt;&#39;d&#39;" style="text;html=1;strokeColor=none;fillColor=none;align=center;verticalAlign=middle;whiteSpace=wrap;rounded=0;" vertex="1" parent="1">
          <mxGeometry x="380" y="270" width="60" height="30" as="geometry" />
        </mxCell>
        <mxCell id="dnsrUVqm7o-Qzcl6kPEJ-44" value="" style="endArrow=classic;html=1;rounded=0;exitX=0;exitY=0;exitDx=0;exitDy=0;entryX=0.5;entryY=0;entryDx=0;entryDy=0;" edge="1" parent="1" source="dnsrUVqm7o-Qzcl6kPEJ-42" target="dnsrUVqm7o-Qzcl6kPEJ-32">
          <mxGeometry width="50" height="50" relative="1" as="geometry">
            <mxPoint x="380" y="250" as="sourcePoint" />
            <mxPoint x="430" y="200" as="targetPoint" />
          </mxGeometry>
        </mxCell>
        <mxCell id="dnsrUVqm7o-Qzcl6kPEJ-45" value="" style="endArrow=classic;html=1;rounded=0;entryX=0.5;entryY=1;entryDx=0;entryDy=0;" edge="1" parent="1" target="dnsrUVqm7o-Qzcl6kPEJ-33">
          <mxGeometry width="50" height="50" relative="1" as="geometry">
            <mxPoint x="380" y="300" as="sourcePoint" />
            <mxPoint x="430" y="200" as="targetPoint" />
          </mxGeometry>
        </mxCell>
        <mxCell id="dnsrUVqm7o-Qzcl6kPEJ-46" value="" style="shape=table;html=1;whiteSpace=wrap;startSize=0;container=1;collapsible=0;childLayout=tableLayout;" vertex="1" parent="1">
          <mxGeometry x="460" y="153" width="160" height="50" as="geometry" />
        </mxCell>
        <mxCell id="dnsrUVqm7o-Qzcl6kPEJ-47" value="" style="shape=tableRow;horizontal=0;startSize=0;swimlaneHead=0;swimlaneBody=0;top=0;left=0;bottom=0;right=0;collapsible=0;dropTarget=0;fillColor=none;points=[[0,0.5],[1,0.5]];portConstraint=eastwest;" vertex="1" parent="dnsrUVqm7o-Qzcl6kPEJ-46">
          <mxGeometry width="160" height="25" as="geometry" />
        </mxCell>
        <mxCell id="dnsrUVqm7o-Qzcl6kPEJ-48" value="m1" style="shape=partialRectangle;html=1;whiteSpace=wrap;connectable=0;fillColor=#1ba1e2;top=0;left=0;bottom=0;right=0;overflow=hidden;fontColor=#ffffff;strokeColor=#006EAF;" vertex="1" parent="dnsrUVqm7o-Qzcl6kPEJ-47">
          <mxGeometry width="40" height="25" as="geometry">
            <mxRectangle width="40" height="25" as="alternateBounds" />
          </mxGeometry>
        </mxCell>
        <mxCell id="dnsrUVqm7o-Qzcl6kPEJ-49" value="n1" style="shape=partialRectangle;html=1;whiteSpace=wrap;connectable=0;fillColor=#1ba1e2;top=0;left=0;bottom=0;right=0;overflow=hidden;fontColor=#ffffff;strokeColor=#006EAF;" vertex="1" parent="dnsrUVqm7o-Qzcl6kPEJ-47">
          <mxGeometry x="40" width="40" height="25" as="geometry">
            <mxRectangle width="40" height="25" as="alternateBounds" />
          </mxGeometry>
        </mxCell>
        <mxCell id="dnsrUVqm7o-Qzcl6kPEJ-50" value="m2" style="shape=partialRectangle;html=1;whiteSpace=wrap;connectable=0;fillColor=#1ba1e2;top=0;left=0;bottom=0;right=0;overflow=hidden;fontColor=#ffffff;strokeColor=#006EAF;" vertex="1" parent="dnsrUVqm7o-Qzcl6kPEJ-47">
          <mxGeometry x="80" width="40" height="25" as="geometry">
            <mxRectangle width="40" height="25" as="alternateBounds" />
          </mxGeometry>
        </mxCell>
        <mxCell id="dnsrUVqm7o-Qzcl6kPEJ-63" value="n2" style="shape=partialRectangle;html=1;whiteSpace=wrap;connectable=0;fillColor=#1ba1e2;top=0;left=0;bottom=0;right=0;overflow=hidden;fontColor=#ffffff;strokeColor=#006EAF;" vertex="1" parent="dnsrUVqm7o-Qzcl6kPEJ-47">
          <mxGeometry x="120" width="40" height="25" as="geometry">
            <mxRectangle width="40" height="25" as="alternateBounds" />
          </mxGeometry>
        </mxCell>
        <mxCell id="dnsrUVqm7o-Qzcl6kPEJ-51" value="" style="shape=tableRow;horizontal=0;startSize=0;swimlaneHead=0;swimlaneBody=0;top=0;left=0;bottom=0;right=0;collapsible=0;dropTarget=0;fillColor=none;points=[[0,0.5],[1,0.5]];portConstraint=eastwest;" vertex="1" parent="dnsrUVqm7o-Qzcl6kPEJ-46">
          <mxGeometry y="25" width="160" height="25" as="geometry" />
        </mxCell>
        <mxCell id="dnsrUVqm7o-Qzcl6kPEJ-52" value="2" style="shape=partialRectangle;html=1;whiteSpace=wrap;connectable=0;fillColor=none;top=0;left=0;bottom=0;right=0;overflow=hidden;" vertex="1" parent="dnsrUVqm7o-Qzcl6kPEJ-51">
          <mxGeometry width="40" height="25" as="geometry">
            <mxRectangle width="40" height="25" as="alternateBounds" />
          </mxGeometry>
        </mxCell>
        <mxCell id="dnsrUVqm7o-Qzcl6kPEJ-53" value="b" style="shape=partialRectangle;html=1;whiteSpace=wrap;connectable=0;fillColor=none;top=0;left=0;bottom=0;right=0;overflow=hidden;" vertex="1" parent="dnsrUVqm7o-Qzcl6kPEJ-51">
          <mxGeometry x="40" width="40" height="25" as="geometry">
            <mxRectangle width="40" height="25" as="alternateBounds" />
          </mxGeometry>
        </mxCell>
        <mxCell id="dnsrUVqm7o-Qzcl6kPEJ-54" value="2" style="shape=partialRectangle;html=1;whiteSpace=wrap;connectable=0;fillColor=none;top=0;left=0;bottom=0;right=0;overflow=hidden;" vertex="1" parent="dnsrUVqm7o-Qzcl6kPEJ-51">
          <mxGeometry x="80" width="40" height="25" as="geometry">
            <mxRectangle width="40" height="25" as="alternateBounds" />
          </mxGeometry>
        </mxCell>
        <mxCell id="dnsrUVqm7o-Qzcl6kPEJ-64" value="b" style="shape=partialRectangle;html=1;whiteSpace=wrap;connectable=0;fillColor=none;top=0;left=0;bottom=0;right=0;overflow=hidden;" vertex="1" parent="dnsrUVqm7o-Qzcl6kPEJ-51">
          <mxGeometry x="120" width="40" height="25" as="geometry">
            <mxRectangle width="40" height="25" as="alternateBounds" />
          </mxGeometry>
        </mxCell>
        <mxCell id="dnsrUVqm7o-Qzcl6kPEJ-65" value="" style="shape=table;html=1;whiteSpace=wrap;startSize=0;container=1;collapsible=0;childLayout=tableLayout;" vertex="1" parent="1">
          <mxGeometry x="460" y="225" width="160" height="50" as="geometry" />
        </mxCell>
        <mxCell id="dnsrUVqm7o-Qzcl6kPEJ-66" value="" style="shape=tableRow;horizontal=0;startSize=0;swimlaneHead=0;swimlaneBody=0;top=0;left=0;bottom=0;right=0;collapsible=0;dropTarget=0;fillColor=none;points=[[0,0.5],[1,0.5]];portConstraint=eastwest;" vertex="1" parent="dnsrUVqm7o-Qzcl6kPEJ-65">
          <mxGeometry width="160" height="25" as="geometry" />
        </mxCell>
        <mxCell id="dnsrUVqm7o-Qzcl6kPEJ-67" value="m1" style="shape=partialRectangle;html=1;whiteSpace=wrap;connectable=0;fillColor=#1ba1e2;top=0;left=0;bottom=0;right=0;overflow=hidden;fontColor=#ffffff;strokeColor=#006EAF;" vertex="1" parent="dnsrUVqm7o-Qzcl6kPEJ-66">
          <mxGeometry width="40" height="25" as="geometry">
            <mxRectangle width="40" height="25" as="alternateBounds" />
          </mxGeometry>
        </mxCell>
        <mxCell id="dnsrUVqm7o-Qzcl6kPEJ-68" value="n1" style="shape=partialRectangle;html=1;whiteSpace=wrap;connectable=0;fillColor=#1ba1e2;top=0;left=0;bottom=0;right=0;overflow=hidden;fontColor=#ffffff;strokeColor=#006EAF;" vertex="1" parent="dnsrUVqm7o-Qzcl6kPEJ-66">
          <mxGeometry x="40" width="40" height="25" as="geometry">
            <mxRectangle width="40" height="25" as="alternateBounds" />
          </mxGeometry>
        </mxCell>
        <mxCell id="dnsrUVqm7o-Qzcl6kPEJ-69" value="m2" style="shape=partialRectangle;html=1;whiteSpace=wrap;connectable=0;fillColor=#1ba1e2;top=0;left=0;bottom=0;right=0;overflow=hidden;fontColor=#ffffff;strokeColor=#006EAF;" vertex="1" parent="dnsrUVqm7o-Qzcl6kPEJ-66">
          <mxGeometry x="80" width="40" height="25" as="geometry">
            <mxRectangle width="40" height="25" as="alternateBounds" />
          </mxGeometry>
        </mxCell>
        <mxCell id="dnsrUVqm7o-Qzcl6kPEJ-70" value="n2" style="shape=partialRectangle;html=1;whiteSpace=wrap;connectable=0;fillColor=#1ba1e2;top=0;left=0;bottom=0;right=0;overflow=hidden;fontColor=#ffffff;strokeColor=#006EAF;" vertex="1" parent="dnsrUVqm7o-Qzcl6kPEJ-66">
          <mxGeometry x="120" width="40" height="25" as="geometry">
            <mxRectangle width="40" height="25" as="alternateBounds" />
          </mxGeometry>
        </mxCell>
        <mxCell id="dnsrUVqm7o-Qzcl6kPEJ-71" value="" style="shape=tableRow;horizontal=0;startSize=0;swimlaneHead=0;swimlaneBody=0;top=0;left=0;bottom=0;right=0;collapsible=0;dropTarget=0;fillColor=none;points=[[0,0.5],[1,0.5]];portConstraint=eastwest;" vertex="1" parent="dnsrUVqm7o-Qzcl6kPEJ-65">
          <mxGeometry y="25" width="160" height="25" as="geometry" />
        </mxCell>
        <mxCell id="dnsrUVqm7o-Qzcl6kPEJ-72" value="3" style="shape=partialRectangle;html=1;whiteSpace=wrap;connectable=0;fillColor=none;top=0;left=0;bottom=0;right=0;overflow=hidden;" vertex="1" parent="dnsrUVqm7o-Qzcl6kPEJ-71">
          <mxGeometry width="40" height="25" as="geometry">
            <mxRectangle width="40" height="25" as="alternateBounds" />
          </mxGeometry>
        </mxCell>
        <mxCell id="dnsrUVqm7o-Qzcl6kPEJ-73" value="c" style="shape=partialRectangle;html=1;whiteSpace=wrap;connectable=0;fillColor=none;top=0;left=0;bottom=0;right=0;overflow=hidden;" vertex="1" parent="dnsrUVqm7o-Qzcl6kPEJ-71">
          <mxGeometry x="40" width="40" height="25" as="geometry">
            <mxRectangle width="40" height="25" as="alternateBounds" />
          </mxGeometry>
        </mxCell>
        <mxCell id="dnsrUVqm7o-Qzcl6kPEJ-74" value="3" style="shape=partialRectangle;html=1;whiteSpace=wrap;connectable=0;fillColor=none;top=0;left=0;bottom=0;right=0;overflow=hidden;" vertex="1" parent="dnsrUVqm7o-Qzcl6kPEJ-71">
          <mxGeometry x="80" width="40" height="25" as="geometry">
            <mxRectangle width="40" height="25" as="alternateBounds" />
          </mxGeometry>
        </mxCell>
        <mxCell id="dnsrUVqm7o-Qzcl6kPEJ-75" value="c" style="shape=partialRectangle;html=1;whiteSpace=wrap;connectable=0;fillColor=none;top=0;left=0;bottom=0;right=0;overflow=hidden;" vertex="1" parent="dnsrUVqm7o-Qzcl6kPEJ-71">
          <mxGeometry x="120" width="40" height="25" as="geometry">
            <mxRectangle width="40" height="25" as="alternateBounds" />
          </mxGeometry>
        </mxCell>
      </root>
    </mxGraphModel>
  </diagram>
</mxfile>
